<?xml version="1.0" standalone="no"?>
<!DOCTYPE svg PUBLIC "-//W3C//DTD SVG 20010904//EN"
 "http://www.w3.org/TR/2001/REC-SVG-20010904/DTD/svg10.dtd">
<svg version="1.0" xmlns="http://www.w3.org/2000/svg"
 width="656.000000pt" height="656.000000pt" viewBox="0 0 656.000000 656.000000"
 preserveAspectRatio="xMidYMid meet">

<g transform="translate(0.000000,656.000000) scale(0.100000,-0.100000)"
fill="#000000" stroke="none">
<path d="M220 6397 c-213 -59 -290 -314 -144 -476 88 -97 77 -95 486 -101 346
-5 358 -6 378 -26 19 -19 46 -188 256 -1615 146 -996 242 -1618 255 -1658 80
-248 265 -434 521 -523 l93 -33 1675 0 c1872 0 1718 -6 1879 71 191 90 339
246 416 439 43 107 528 2530 521 2603 -10 107 -82 203 -184 244 l-57 23 -2347
3 -2346 2 -6 28 c-3 15 -22 137 -42 271 -51 345 -83 428 -220 565 -77 78 -171
134 -282 168 -62 20 -94 22 -437 24 -275 3 -382 0 -415 -9z"/>
<path d="M2179 1661 c-333 -90 -559 -366 -576 -703 -13 -253 89 -479 286 -636
268 -213 626 -211 910 3 128 98 242 274 276 431 26 113 17 292 -19 397 -36
108 -65 162 -132 245 -101 127 -248 222 -408 262 -101 26 -245 26 -337 1z"/>
<path d="M4821 1670 c-288 -60 -520 -282 -591 -564 -27 -108 -27 -265 0 -372
56 -220 212 -409 418 -506 339 -160 751 -45 960 267 85 127 125 265 125 425
-1 132 -25 227 -90 353 -38 75 -64 109 -138 182 -102 102 -183 153 -300 192
-66 22 -102 26 -210 29 -71 2 -150 -1 -174 -6z"/>
</g>
</svg>
